<?xml version="1.0" encoding="utf-8"?>
<!-- Generator: Adobe Illustrator 23.0.3, SVG Export Plug-In . SVG Version: 6.00 Build 0)  -->
<svg version="1.1" id="Capa_1" xmlns="http://www.w3.org/2000/svg" xmlns:xlink="http://www.w3.org/1999/xlink" x="0px" y="0px"
	 viewBox="0 0 508 508" style="enable-background:new 0 0 508 508;" xml:space="preserve">
<style type="text/css">
	.st0{fill:#333333;stroke:#333333;stroke-width:6;stroke-miterlimit:10;}
</style>
<g>
	<g>
		<path class="st0" d="M254.5,3C118.9,3,3,111,3,253.5C3,386.2,109,504,254.5,504C398.3,504,506,385.6,506,253.5
			C506,126.1,403.4,3,254.5,3z M196.6,26.4c-23.8,19.9-43.9,52-58,91.7c-16.5-9.4-32.1-20.8-46.1-34.2C122,55.7,157.7,36,196.6,26.4
			z M81.1,95.3c15.9,15.2,33.5,28.1,52.4,38.5c-10,33.3-16,71.3-16.7,111.6H19.4C21.3,189.4,43,136.6,81.1,95.3z M19.4,261.6h97.2
			c0.7,40.3,6.6,78.3,16.7,111.6c-18.8,10.4-36.4,23.3-52.3,38.4C43,370.3,21.3,317.6,19.4,261.6z M92.4,423.2
			c14.1-13.4,29.6-24.9,46.1-34.2c14.1,39.6,34.2,71.7,57.9,91.8C157.7,471,122,451.3,92.4,423.2z M246.4,487.2
			c-39.2-5-73.4-45.9-93.8-105.8c29-13.8,60.8-21.6,93.8-22.7V487.2z M246.4,342.6c-34.7,1.1-68,9.1-98.6,23.4
			c-8.9-31.2-14.2-66.7-14.9-104.3h113.5V342.6L246.4,342.6z M246.4,245.5H132.9c0.7-37.8,5.9-73.3,14.9-104.4
			c30.6,14.3,64,22.3,98.6,23.4V245.5L246.4,245.5z M246.4,148.3c-33-1.1-64.8-8.9-93.8-22.8C173,65.6,207.2,24.8,246.4,19.8V148.3z
			 M489.6,245.4h-97.2c-0.7-40.3-6.6-78.3-16.7-111.7c18.8-10.4,36.4-23.3,52.3-38.4C466,136.6,487.7,189.4,489.6,245.4z
			 M416.6,83.8c-14.1,13.4-29.6,24.9-46.1,34.2c-14.2-39.6-34.3-71.7-58-91.7C351.2,36,387,55.7,416.6,83.8z M262.6,19.8
			c39.2,5,73.4,45.9,93.8,105.7c-29,13.9-60.8,21.7-93.8,22.8L262.6,19.8L262.6,19.8z M262.6,164.4c34.7-1.1,68-9.1,98.6-23.4
			c8.9,31.2,14.2,66.7,14.9,104.4H262.6V164.4z M262.6,261.6h113.5c-0.7,37.7-5.9,73.2-14.9,104.3c-30.6-14.3-64-22.3-98.6-23.4
			V261.6z M262.6,487.2V358.7c33,1.1,64.8,8.9,93.8,22.8C336,441.4,301.8,482.3,262.6,487.2z M312.5,480.6
			c23.8-20,43.9-52,57.9-91.7c16.5,9.4,32,20.8,46.1,34.2C387,451.2,351.3,470.9,312.5,480.6z M427.9,411.7
			c-15.9-15.2-33.5-28-52.3-38.4c10.1-33.4,16-71.4,16.7-111.7h97.2C487.7,317.6,466,370.3,427.9,411.7z"/>
	</g>
</g>
</svg>
